HIERARCHY
ROOT Hips
{
 OFFSET 0.000000 0.000000 0.000000
 CHANNELS 6 Xposition Yposition Zposition Yrotation Xrotation Zrotation
 JOINT Chest
 {
  OFFSET 0.000000 9.585900 0.002600
  CHANNELS 3 Yrotation Xrotation Zrotation
  JOINT Chest2
  {
   OFFSET 0.000000 9.601200 -0.005300
   CHANNELS 3 Yrotation Xrotation Zrotation
   JOINT Chest3
   {
    OFFSET 0.000000 9.561800 0.000000
    CHANNELS 3 Yrotation Xrotation Zrotation
    JOINT Chest4
    {
     OFFSET 0.000000 9.552100 0.000000
     CHANNELS 3 Yrotation Xrotation Zrotation
     JOINT Neck
     {
      OFFSET 0.000000 14.453000 0.000000
      CHANNELS 3 Yrotation Xrotation Zrotation
      JOINT Head
      {
       OFFSET 0.000000 8.936500 -0.011300
       CHANNELS 3 Yrotation Xrotation Zrotation
       End Site
       {
        OFFSET 0.000000 17.073600 -0.006000
       }
      }
     }
     JOINT RightCollar
     {
      OFFSET -2.921100 9.558500 0.000000
      CHANNELS 3 Yrotation Xrotation Zrotation
      JOINT RightShoulder
      {
       OFFSET -13.519700 0.000000 0.000000
       CHANNELS 3 Yrotation Xrotation Zrotation
       JOINT RightElbow
       {
        OFFSET 0.000000 -29.696600 0.000000
        CHANNELS 3 Yrotation Xrotation Zrotation
        JOINT RightWrist
        {
         OFFSET 0.000000 -24.004700 0.000000
         CHANNELS 3 Yrotation Xrotation Zrotation
         End Site
         {
          OFFSET 0.000000 -17.728500 0.000000
         }
        }
       }
      }
     }
     JOINT LeftCollar
     {
      OFFSET 2.921100 9.558500 0.000000
      CHANNELS 3 Yrotation Xrotation Zrotation
      JOINT LeftShoulder
      {
       OFFSET 13.519700 0.000000 0.000000
       CHANNELS 3 Yrotation Xrotation Zrotation
       JOINT LeftElbow
       {
        OFFSET 0.000000 -29.696600 0.000000
        CHANNELS 3 Yrotation Xrotation Zrotation
        JOINT LeftWrist
        {
         OFFSET 0.000000 -24.004700 0.000000
         CHANNELS 3 Yrotation Xrotation Zrotation
         End Site
         {
          OFFSET 0.000000 -17.728500 0.000000
         }
        }
       }
      }
     }
    }
   }
  }
 }
 JOINT RightHip
 {
  OFFSET -7.771700 -0.012900 -0.001300
  CHANNELS 3 Yrotation Xrotation Zrotation
  JOINT RightKnee
  {
   OFFSET 0.000000 -40.869800 0.001200
   CHANNELS 3 Yrotation Xrotation Zrotation
   JOINT RightAnkle
   {
    OFFSET 0.000000 -39.717900 0.002100
    CHANNELS 3 Yrotation Xrotation Zrotation
    JOINT RightToe
    {
     OFFSET 0.000000 -4.965400 11.033500
     CHANNELS 3 Yrotation Xrotation Zrotation
     End Site
     {
      OFFSET 0.000000 -1.423100 5.872300
     }
    }
   }
  }
 }
 JOINT LeftHip
 {
  OFFSET 7.771700 -0.012900 -0.001300
  CHANNELS 3 Yrotation Xrotation Zrotation
  JOINT LeftKnee
  {
   OFFSET 0.000000 -40.869800 0.001200
   CHANNELS 3 Yrotation Xrotation Zrotation
   JOINT LeftAnkle
   {
    OFFSET 0.000000 -39.717900 0.002100
    CHANNELS 3 Yrotation Xrotation Zrotation
    JOINT LeftToe
    {
     OFFSET 0.000000 -4.965400 11.033500
     CHANNELS 3 Yrotation Xrotation Zrotation
     End Site
     {
      OFFSET 0.000000 -1.423100 5.872300
     }
    }
   }
  }
 }
}
MOTION
Frames: 16
Frame Time: 0.008333
0.000000 85.388000 0.000000 0.000000 -5.767877 0.000000 0.000000 11.653817 0.000000 0.000000 -5.885947 0.000000 0.000000 -0.000000 0.000000 0.000000 -0.000000 0.000000 0.000000 12.528835 0.000000 0.000000 0.711642 0.000000 0.000000 -0.000000 0.000000 0.000000 0.000000 -90.000000 0.000000 -2.309062 0.000000 0.000000 2.309062 0.000000 0.000000 -0.000000 0.000000 0.000000 -0.000000 90.000000 0.000000 -2.309062 0.000000 0.000000 2.309062 0.000000 0.000000 8.520406 0.000000 0.000000 1.905762 0.000000 -0.000000 -4.658285 0.000000 0.000000 -0.000000 0.000000 0.000000 8.520406 0.000000 0.000000 1.905762 0.000000 -0.000000 -4.658285 0.000000 0.000000 -0.000000 0.000000
-146.350989 49.020769 18.823720 177.831479 -33.516947 -3.945751 1.767074 21.077992 3.287018 0.204249 2.770786 0.362870 0.319046 4.571595 0.595988 1.593668 17.961276 2.562755 9.501859 21.815919 -1.878635 17.689889 5.486057 -5.947023 -4.301912 -3.342028 -3.438689 -11.886441 -5.025520 -9.706256 -57.597428 -38.123284 95.315146 -3.048539 -5.395377 -12.230472 -1.878776 -3.096044 5.297748 13.835302 -3.947614 8.172461 72.067088 -36.722314 -97.874799 18.079765 -5.953551 26.297021 -3.557903 -51.447154 -8.189737 -135.892978 81.920231 -123.479043 -30.271065 -2.699956 -3.997274 -0.139277 -10.945323 0.890932 -14.253473 -53.242471 16.893939 -73.468669 65.532809 -78.325248 30.680665 7.206920 15.789484 0.001853 -0.346638 0.002453
-146.353093 49.021106 18.823761 177.857197 -33.531608 -3.946683 1.762422 21.045446 3.282211 0.188507 2.804647 0.361560 0.325198 4.558100 0.592902 1.589867 17.958794 2.558588 9.346788 21.836158 -1.821767 17.392995 5.494518 -5.802606 -4.308218 -3.297906 -3.427506 -11.907488 -5.012457 -9.599631 -57.574910 -38.219620 95.281013 -3.126607 -5.402563 -12.208145 -1.956491 -3.083587 5.262226 13.841528 -3.987407 8.089861 72.064725 -36.703341 -97.885099 18.083906 -5.919596 26.298477 -3.556039 -51.433017 -8.208418 -135.935409 81.916545 -123.529512 -30.263054 -2.702048 -3.995798 -0.144346 -10.942448 0.899959 -14.252600 -53.226894 16.883850 -73.421636 65.525881 -78.299102 30.684753 7.222959 15.811397 -0.001516 -0.353803 0.001861
-146.354094 49.021314 18.824131 177.890190 -33.543795 -3.958511 1.736685 21.053700 3.276660 0.191680 2.798386 0.360968 0.331010 4.544932 0.588812 1.580865 17.970216 2.559434 9.193101 21.839006 -1.777791 17.114648 5.495249 -5.664466 -4.319675 -3.288580 -3.442282 -11.906114 -4.974161 -9.481057 -57.567907 -38.146107 95.229702 -3.107706 -5.385282 -12.154031 -2.033328 -3.087069 5.228376 13.836850 -4.018485 8.001314 72.063299 -36.652485 -97.895296 18.103137 -5.913481 26.310140 -3.555796 -51.421493 -8.214331 -135.931170 81.896595 -123.526951 -30.258801 -2.709796 -3.996474 -0.145831 -10.935728 0.915758 -14.266817 -53.211561 16.884753 -73.374531 65.518753 -78.273129 30.700722 7.231964 15.830906 -0.023804 -0.360517 0.007330
-146.356659 49.021911 18.823476 177.934689 -33.559990 -3.967362 1.712768 21.049978 3.263248 0.202791 2.774970 0.352773 0.305985 4.583806 0.600489 1.576102 17.963268 2.552964 9.039759 21.837474 -1.735171 16.850048 5.490262 -5.529905 -4.331133 -3.294841 -3.459741 -11.886942 -4.917570 -9.369851 -57.545755 -38.081927 95.182725 -3.102672 -5.382467 -12.116949 -2.108189 -3.090598 5.201650 13.826169 -4.043172 7.910791 72.063621 -36.578823 -97.908470 18.128384 -5.933205 26.326319 -3.559897 -51.403162 -8.240788 -135.955353 81.882144 -123.553661 -30.255596 -2.719344 -3.983798 -0.143529 -10.930974 0.916882 -14.276760 -53.195634 16.860665 -73.337564 65.519853 -78.250585 30.709076 7.238227 15.845386 -0.031334 -0.360066 0.007839
-146.359138 49.022290 18.822876 177.921480 -33.576533 -3.945341 1.749219 21.024680 3.246274 0.179295 2.803819 0.361720 0.309010 4.569656 0.594431 1.555556 17.960579 2.543379 8.899196 21.847850 -1.681797 16.592745 5.480941 -5.395366 -4.327934 -3.284351 -3.463117 -11.859583 -4.863450 -9.274054 -57.526591 -38.033012 95.148927 -3.123781 -5.384601 -12.094188 -2.133750 -3.070547 5.201653 13.777643 -4.070663 7.804185 72.068862 -36.502796 -97.927190 18.153221 -5.970087 26.344448 -3.516678 -51.388057 -8.264824 -135.962883 81.865142 -123.563018 -30.257968 -2.697203 -3.971394 -0.138831 -10.957832 0.918702 -14.242539 -53.181144 16.854789 -73.329899 65.501267 -78.251704 30.673791 7.192598 15.829743 -0.000056 -0.300297 0.022039
-146.360465 49.022522 18.822325 177.949134 -33.588513 -3.953898 1.731387 21.019493 3.233478 0.177249 2.811787 0.366515 0.308119 4.556662 0.587769 1.531937 17.958038 2.530639 8.762858 21.857788 -1.628548 16.339528 5.469917 -5.259760 -4.310974 -3.263461 -3.453936 -11.834990 -4.825577 -9.200118 -57.524844 -38.040791 95.125232 -3.133844 -5.386357 -12.085379 -2.207889 -3.068427 5.185591 13.779445 -4.081089 7.733082 72.082550 -36.443076 -97.950094 18.172187 -6.014983 26.361640 -3.526682 -51.374900 -8.274933 -136.001763 81.853679 -123.608217 -30.247400 -2.706924 -3.956166 -0.146870 -10.952986 0.916406 -14.247946 -53.165819 16.862242 -73.296382 65.487121 -78.238566 30.665167 7.196257 15.845562 0.010290 -0.296104 0.024656
-146.366005 49.022626 18.820913 177.986374 -33.602406 -3.944398 1.691209 21.026954 3.197533 0.177344 2.786767 0.351392 0.302702 4.559069 0.585525 1.490815 17.949922 2.501153 8.657816 21.879807 -1.551483 16.090909 5.460870 -5.125647 -4.280536 -3.251383 -3.448876 -11.801444 -4.762345 -9.126162 -57.525124 -38.035738 95.111627 -3.209434 -5.392588 -12.062124 -2.251542 -3.053950 5.190964 13.773233 -4.088604 7.675223 72.104963 -36.408350 -97.972165 18.180966 -6.060077 26.371577 -3.516734 -51.362003 -8.322046 -136.056487 81.845193 -123.673188 -30.246234 -2.716258 -3.942561 -0.149516 -10.946863 0.918079 -14.219313 -53.154367 16.820634 -73.229901 65.484829 -78.211038 30.674588 7.198869 15.902937 -0.006809 -0.299527 0.015476
-146.369240 49.023568 18.818243 178.019272 -33.626814 -3.949224 1.658664 21.043637 3.178755 0.177373 2.791562 0.353162 0.298491 4.553209 0.581041 1.447178 17.929620 2.471167 8.542883 21.893951 -1.491182 15.848299 5.455512 -4.994544 -4.266641 -3.260725 -3.478227 -11.761945 -4.687238 -9.053732 -57.515807 -37.992580 95.118744 -3.205511 -5.417683 -12.045162 -2.273424 -3.045216 5.189194 13.743350 -4.098243 7.624264 72.136819 -36.429561 -97.939782 18.214129 -6.084762 26.316586 -3.519486 -51.339432 -8.343562 -136.092338 81.836508 -123.717931 -30.250696 -2.711398 -3.930612 -0.146440 -10.951900 0.919470 -14.198826 -53.131686 16.794275 -73.206257 65.471077 -78.200626 30.674609 7.203362 15.926236 0.010970 -0.294397 0.012076
-146.372051 49.022633 18.818152 178.026054 -33.635991 -3.946814 1.639640 21.032530 3.157603 0.174464 2.790279 0.351190 0.293628 4.551515 0.577898 1.425679 17.925347 2.458429 8.419596 21.903940 -1.438893 15.610860 5.452813 -4.867482 -4.238351 -3.245447 -3.480869 -11.755722 -4.651014 -9.025652 -57.511695 -37.966244 95.137567 -3.153645 -5.446126 -12.014195 -2.303784 -3.040987 5.182413 13.715640 -4.105037 7.586236 72.172574 -36.445161 -97.910833 18.205376 -6.100983 26.257755 -3.514230 -51.332884 -8.349476 -136.112006 81.831949 -123.749387 -30.245957 -2.712935 -3.921852 -0.153247 -10.946138 0.922771 -14.182159 -53.124414 16.782397 -73.197786 65.464648 -78.197480 30.673587 7.203607 15.937394 0.016228 -0.291135 0.010388
-146.375433 49.022249 18.816822 178.035006 -33.656451 -3.946542 1.616461 21.030274 3.133077 0.152527 2.760069 0.338698 0.309645 4.577678 0.585520 1.404168 17.924537 2.451057 8.297950 21.914533 -1.390002 15.377239 5.452309 -4.746719 -4.223738 -3.246335 -3.498397 -11.744265 -4.604411 -9.003024 -57.518076 -38.018946 95.188191 -3.136903 -5.474778 -11.980360 -2.338305 -3.037064 5.171047 13.696797 -4.109405 7.559762 72.206178 -36.455337 -97.933568 18.163807 -6.132924 26.300784 -3.510987 -51.314628 -8.357966 -136.161279 81.832601 -123.812060 -30.235131 -2.714341 -3.920033 -0.169346 -10.939668 0.933813 -14.163766 -53.106193 16.766110 -73.192235 65.459358 -78.196839 30.678119 7.204204 15.943043 0.011133 -0.293143 0.015936
-146.378119 49.021837 18.815417 178.039902 -33.681620 -3.952622 1.576850 20.998376 3.104068 0.176738 2.804172 0.352865 0.295274 4.564434 0.577842 1.379779 17.923209 2.440046 8.179775 21.926407 -1.344385 15.150748 5.455298 -4.632640 -4.214516 -3.247399 -3.512997 -11.715649 -4.566179 -8.990875 -57.533742 -38.120398 95.222734 -3.127077 -5.506611 -11.917436 -2.376642 -3.034261 5.153124 13.691144 -4.108133 7.544323 72.249086 -36.498162 -98.005520 18.149230 -6.171475 26.379938 -3.518396 -51.291404 -8.347246 -136.163557 81.829227 -123.823593 -30.235537 -2.715892 -3.924103 -0.160279 -10.935444 0.942347 -14.139461 -53.085535 16.763022 -73.197551 65.444311 -78.214180 30.689053 7.202130 15.962240 0.006178 -0.295267 0.019002
-146.380923 49.023344 18.810948 178.061841 -33.731571 -3.970462 1.542638 21.018434 3.092113 0.186190 2.820109 0.359078 0.279594 4.548650 0.570804 1.381620 17.939857 2.439843 8.037978 21.923703 -1.306918 14.937065 5.462732 -4.524179 -4.227048 -3.259933 -3.536550 -11.688386 -4.532763 -8.976795 -57.558344 -38.249646 95.255357 -3.106331 -5.540903 -11.839335 -2.444810 -3.050317 5.129526 13.695645 -4.097075 7.538803 72.297672 -36.562222 -98.020981 18.093159 -6.150547 26.339399 -3.538359 -51.238806 -8.331702 -136.135643 81.826263 -123.804808 -30.249707 -2.713730 -3.925702 -0.144411 -10.935648 0.951719 -14.111772 -53.038085 16.739659 -73.196133 65.430619 -78.215556 30.702409 7.204564 15.988393 -0.000864 -0.299684 0.013989
-146.386812 49.022321 18.809714 178.073269 -33.760860 -3.966957 1.507619 21.018314 3.060584 0.158330 2.787768 0.344403 0.300494 4.580532 0.582909 1.337357 17.932495 2.420292 7.948765 21.947147 -1.261813 14.737489 5.475016 -4.419792 -4.192582 -3.241077 -3.550654 -11.681715 -4.512955 -8.985948 -57.581652 -38.401592 95.298223 -3.082154 -5.571703 -11.748991 -2.470176 -3.043020 5.110291 13.700737 -4.076436 7.542663 72.353343 -36.603444 -97.990472 18.044738 -6.122267 26.320082 -3.529632 -51.213427 -8.340338 -136.139921 81.826133 -123.825809 -30.262735 -2.708202 -3.917948 -0.138763 -10.931289 0.957814 -14.064620 -53.014543 16.704584 -73.175903 65.415174 -78.216625 30.725000 7.200941 16.037943 -0.017926 -0.299669 0.002072
-146.388405 49.019873 18.811387 178.072580 -33.775322 -3.983706 1.490360 21.004046 3.056838 0.168049 2.801542 0.350246 0.281701 4.562823 0.573505 1.291026 17.924719 2.400705 7.866690 21.973548 -1.216091 14.547623 5.492797 -4.315415 -4.152012 -3.230686 -3.556502 -11.676799 -4.485790 -9.015995 -57.622535 -38.578923 95.348895 -3.047999 -5.594808 -11.651641 -2.490192 -3.034884 5.094476 13.703444 -4.051354 7.553418 72.414126 -36.674678 -98.003843 18.069946 -6.135870 26.364841 -3.540011 -51.202007 -8.309185 -136.111195 81.819272 -123.799990 -30.260560 -2.709978 -3.928718 -0.140222 -10.923221 0.972667 -14.060515 -53.001929 16.726143 -73.190778 65.401824 -78.230014 30.718094 7.198977 16.040296 -0.008759 -0.293505 0.005556
-146.389230 49.017661 18.813090 178.077236 -33.792310 -4.007068 1.469516 20.994639 3.058398 0.177786 2.814228 0.354627 0.225261 4.514100 0.548745 1.335940 17.970998 2.414972 7.738168 21.976418 -1.177131 14.362304 5.515569 -4.208448 -4.206962 -3.290395 -3.567840 -11.671041 -4.437061 -9.108660 -57.647498 -38.728907 95.430322 -3.006791 -5.606958 -11.553357 -2.552851 -3.052505 5.079584 13.712562 -4.025703 7.566179 72.477448 -36.742663 -98.016240 18.048586 -6.121521 26.409875 -3.559932 -51.185306 -8.277236 -136.124567 81.820169 -123.815827 -30.262860 -2.711248 -3.925175 -0.139692 -10.917695 0.973659 -14.058133 -52.988511 16.755466 -73.221033 65.381172 -78.254347 30.697853 7.198846 16.037001 0.014399 -0.285242 0.011527
